<?xml version="1.0" standalone="no"?>
<!DOCTYPE svg PUBLIC "-//W3C//DTD SVG 20010904//EN"
 "http://www.w3.org/TR/2001/REC-SVG-20010904/DTD/svg10.dtd">
<svg version="1.0" xmlns="http://www.w3.org/2000/svg"
 width="64.000000pt" height="63.000000pt" viewBox="0 0 64.000000 63.000000"
 preserveAspectRatio="xMidYMid meet">

<g transform="translate(0.000000,63.000000) scale(0.100000,-0.100000)"
fill="#000000" stroke="none">
<path d="M160 621 c0 -6 4 -13 10 -16 6 -3 7 1 4 9 -7 18 -14 21 -14 7z"/>
<path d="M360 622 c0 -8 -9 -11 -27 -7 -23 4 -25 4 -8 -4 17 -8 17 -10 3 -10
-9 -1 -20 -5 -23 -11 -4 -6 1 -7 12 -4 12 4 10 0 -7 -15 -14 -11 -28 -21 -32
-21 -5 0 -8 -11 -8 -24 0 -18 -6 -26 -22 -28 -13 -2 -22 -9 -20 -16 2 -10 -4
-12 -20 -7 -18 5 -20 4 -8 -4 10 -7 11 -11 3 -11 -7 0 -13 -5 -13 -11 0 -8 4
-8 13 -2 23 19 67 21 76 5 5 -8 15 -12 24 -9 8 3 23 -1 34 -9 17 -14 16 -14
-4 -4 -19 9 -23 8 -23 -4 0 -9 6 -13 14 -10 15 6 43 -33 32 -43 -3 -4 -1 -12
5 -20 6 -7 8 -13 3 -14 -5 0 0 -4 10 -8 11 -4 44 -4 74 1 49 8 85 2 56 -9 -7
-2 -10 -13 -7 -24 4 -14 1 -18 -9 -14 -9 4 -15 0 -15 -10 0 -18 -3 -18 42 1
20 8 44 13 53 11 16 -4 16 -5 1 -6 -24 -2 -32 -41 -9 -41 10 0 32 -12 49 -26
17 -14 31 -22 31 -17 0 14 -14 29 -33 36 -10 4 -16 11 -13 16 4 5 0 12 -6 14
-7 3 3 3 22 0 27 -3 31 -2 20 6 -10 7 -11 11 -2 11 15 0 13 60 -3 60 -5 0 -3
5 5 10 13 9 12 12 -4 25 -11 8 -25 15 -30 15 -6 0 -5 -4 3 -9 19 -12 5 -30
-19 -24 -27 7 -25 -12 3 -33 l22 -16 -22 5 c-13 3 -27 -1 -34 -9 -14 -16 -39
-19 -39 -3 0 6 4 18 9 28 12 21 -4 53 -17 34 -8 -12 -37 -17 -88 -15 -36 2
-44 32 -8 32 12 0 29 6 36 13 7 7 26 13 43 13 29 -1 30 0 30 47 1 40 5 52 25
68 15 11 18 17 8 13 -12 -4 -21 2 -29 20 -7 14 -17 26 -23 26 -6 0 -4 5 4 10
13 9 13 10 0 11 -8 1 -18 1 -22 0 -5 0 -8 4 -8 9 0 6 -12 8 -27 4 -22 -4 -25
-3 -13 5 13 9 13 11 -2 11 -9 0 -19 -8 -21 -17 -4 -15 -5 -15 -6 2 -1 17 -3
18 -11 5 -9 -13 -11 -13 -20 0 -7 10 -10 11 -10 2z m105 -142 c-3 -5 -10 -10
-16 -10 -5 0 -9 5 -9 10 0 6 7 10 16 10 8 0 12 -4 9 -10z m32 -22 c-3 -8 -6
-5 -6 6 -1 11 2 17 5 13 3 -3 4 -12 1 -19z m13 -38 c0 -14 -33 -13 -48 2 -9 9
-12 9 -12 0 0 -7 -7 -12 -15 -12 -8 0 -15 -4 -15 -10 0 -23 -45 -9 -57 17 -17
35 -16 43 2 43 8 0 15 -5 15 -10 0 -6 8 -5 20 2 17 11 22 10 30 -2 5 -8 10
-11 10 -7 0 4 10 2 23 -4 19 -11 20 -10 10 3 -7 8 -10 17 -7 21 7 7 44 -29 44
-43z m120 -104 c0 -3 -4 -8 -10 -11 -5 -3 -10 -1 -10 4 0 6 5 11 10 11 6 0 10
-2 10 -4z"/>
<path d="M403 435 c0 -8 4 -12 9 -9 5 3 6 10 3 15 -9 13 -12 11 -12 -6z"/>
<path d="M589 598 c-1 -18 -1 -36 0 -40 0 -5 -3 -8 -9 -8 -5 0 -10 -7 -10 -15
0 -13 4 -14 20 -5 16 9 22 8 26 -4 3 -8 3 -19 0 -25 -4 -5 -2 -12 4 -16 6 -3
10 4 11 17 0 13 1 42 3 65 1 23 -1 40 -6 37 -4 -3 -8 -17 -8 -31 0 -15 -3 -23
-7 -19 -10 10 -11 56 -2 50 4 -2 12 3 19 11 11 13 8 15 -14 15 -22 0 -26 -4
-27 -32z"/>
<path d="M560 611 c0 -5 5 -13 10 -16 6 -3 10 -2 10 4 0 5 -4 13 -10 16 -5 3
-10 2 -10 -4z"/>
<path d="M121 584 c0 -11 3 -14 6 -6 3 7 2 16 -1 19 -3 4 -6 -2 -5 -13z"/>
<path d="M158 583 c7 -3 16 -2 19 1 4 3 -2 6 -13 5 -11 0 -14 -3 -6 -6z"/>
<path d="M275 570 c-3 -5 -1 -10 4 -10 6 0 11 5 11 10 0 6 -2 10 -4 10 -3 0
-8 -4 -11 -10z"/>
<path d="M167 540 c3 -11 7 -20 9 -20 2 0 4 9 4 20 0 11 -4 20 -9 20 -5 0 -7
-9 -4 -20z"/>
<path d="M90 541 c0 -6 4 -13 10 -16 6 -3 7 1 4 9 -7 18 -14 21 -14 7z"/>
<path d="M27 525 c3 -9 -2 -24 -11 -34 -16 -17 -16 -19 0 -25 9 -3 14 -12 11
-20 -4 -9 3 -16 18 -19 14 -2 22 0 19 4 -3 5 2 9 10 9 9 0 16 -4 16 -10 0 -5
7 -7 16 -3 13 5 15 1 10 -18 l-7 -24 15 25 c8 14 13 28 10 31 -2 3 -28 14 -58
23 -49 16 -54 20 -44 36 7 10 21 17 34 15 15 -1 21 2 17 11 -3 8 -18 14 -34
14 -21 0 -27 -4 -22 -15z"/>
<path d="M216 431 c-4 -5 3 -7 14 -4 23 6 26 13 6 13 -8 0 -17 -4 -20 -9z"/>
<path d="M244 398 c-10 -15 1 -19 26 -10 l24 9 -22 5 c-12 4 -25 2 -28 -4z"/>
<path d="M518 383 c12 -2 32 -2 45 0 12 2 2 4 -23 4 -25 0 -35 -2 -22 -4z"/>
<path d="M71 343 c-10 -26 -10 -27 4 -9 8 11 15 23 15 28 0 15 -7 8 -19 -19z"/>
<path d="M230 310 c0 -5 5 -10 11 -10 5 0 7 5 4 10 -3 6 -8 10 -11 10 -2 0 -4
-4 -4 -10z"/>
<path d="M18 291 c-10 -10 -18 -32 -18 -50 0 -27 3 -31 18 -27 12 4 25 -1 36
-13 10 -11 25 -17 34 -14 11 5 13 3 7 -7 -5 -9 -4 -11 3 -6 17 10 15 26 -4 26
-22 0 -72 31 -79 48 -3 7 2 20 10 28 8 9 15 20 15 25 0 12 -2 11 -22 -10z"/>
<path d="M370 306 c0 -2 7 -7 16 -10 8 -3 12 -2 9 4 -6 10 -25 14 -25 6z"/>
<path d="M440 300 c-8 -5 -10 -10 -5 -10 6 0 17 5 25 10 8 5 11 10 5 10 -5 0
-17 -5 -25 -10z"/>
<path d="M148 277 c-3 -19 -2 -25 4 -19 6 6 8 18 6 28 -3 14 -5 12 -10 -9z"/>
<path d="M257 278 c-5 -20 -4 -21 6 -7 7 9 19 18 27 22 10 4 9 6 -6 6 -14 1
-24 -7 -27 -21z"/>
<path d="M310 270 c0 -11 5 -20 10 -20 6 0 10 -7 10 -15 0 -8 6 -15 13 -15 20
0 51 -37 38 -45 -6 -3 -11 -14 -10 -23 0 -12 3 -10 10 6 12 32 30 18 22 -18
-4 -23 -2 -30 10 -30 39 0 46 54 13 104 -22 35 -32 27 -13 -11 25 -48 29 -70
13 -70 -8 0 -12 6 -9 14 3 8 -6 27 -21 42 -14 15 -23 31 -19 36 5 4 3 5 -3 2
-7 -4 -14 2 -17 14 -5 20 -3 21 42 17 30 -3 48 -1 48 6 0 7 -18 10 -49 8 -30
-3 -48 0 -48 7 0 6 -9 11 -20 11 -13 0 -20 -7 -20 -20z m25 0 c3 -5 1 -10 -4
-10 -6 0 -11 5 -11 10 0 6 2 10 4 10 3 0 8 -4 11 -10z"/>
<path d="M261 250 c-23 -5 -22 -6 12 -17 22 -6 39 -7 43 -2 3 5 -1 9 -10 9 -8
0 -16 4 -18 8 -1 5 -14 6 -27 2z"/>
<path d="M618 243 c7 -3 16 -2 19 1 4 3 -2 6 -13 5 -11 0 -14 -3 -6 -6z"/>
<path d="M255 211 c-6 -5 -19 -11 -30 -13 -16 -3 -15 -5 8 -10 15 -3 25 -3 22
0 -2 3 0 11 6 19 13 15 8 18 -6 4z"/>
<path d="M185 200 c-3 -5 -1 -10 4 -10 6 0 11 5 11 10 0 6 -2 10 -4 10 -3 0
-8 -4 -11 -10z"/>
<path d="M7 189 c7 -7 15 -10 18 -7 3 3 -2 9 -12 12 -14 6 -15 5 -6 -5z"/>
<path d="M522 176 c29 -12 129 -9 108 4 -7 4 -40 8 -74 8 -55 0 -58 -1 -34
-12z"/>
<path d="M23 173 c-22 -4 -31 -27 -15 -36 4 -3 27 -7 52 -10 l45 -6 -50 14
-50 15 43 -4 c23 -2 42 0 42 5 0 5 -12 9 -27 9 -22 0 -25 2 -13 10 15 10 11
10 -27 3z"/>
<path d="M298 173 c-16 -2 -28 -8 -28 -11 0 -4 -20 -9 -45 -10 -25 -1 -44 2
-41 6 2 4 -14 8 -35 9 -60 4 -46 -14 19 -23 51 -7 54 -8 27 -15 l-30 -7 30 -2
30 -2 -30 -10 c-35 -13 -65 -36 -65 -53 0 -6 7 -20 15 -31 14 -18 15 -18 6 7
-12 33 -4 45 43 64 45 19 51 16 38 -22 -8 -24 -14 -28 -43 -26 -31 1 -32 0
-15 -12 10 -8 15 -18 11 -24 -8 -15 274 -15 295 0 11 7 -3 9 -50 5 -44 -4 -58
-3 -45 3 20 9 20 10 -1 10 -12 1 -29 11 -37 23 -13 19 -16 20 -16 6 -1 -14 -9
-18 -35 -18 -19 0 -42 -3 -52 -7 -14 -5 -16 -3 -9 13 5 10 9 32 10 47 2 34 22
58 29 36 3 -8 7 -27 9 -44 2 -19 10 -31 21 -33 14 -3 17 2 14 25 -2 16 -8 27
-15 26 -15 -3 -16 6 -3 27 6 9 5 17 -3 23 -7 5 -2 7 15 4 19 -3 25 0 21 10 -3
7 -6 12 -7 12 0 -1 -13 -4 -28 -6z m9 -105 c-3 -8 -6 -5 -6 6 -1 11 2 17 5 13
3 -3 4 -12 1 -19z m33 -48 c-8 -5 -26 -9 -40 -9 -23 1 -23 2 5 9 43 11 52 11
35 0z"/>
<path d="M468 163 c7 -3 16 -2 19 1 4 3 -2 6 -13 5 -11 0 -14 -3 -6 -6z"/>
<path d="M377 106 c4 -18 1 -31 -8 -37 -9 -6 -4 -8 16 -6 25 2 30 -1 27 -18
-2 -19 -2 -19 8 -2 8 12 18 16 32 11 14 -4 18 -3 13 5 -13 22 16 41 61 41 24
0 44 3 44 8 0 4 -27 5 -59 4 -48 -3 -60 -7 -64 -23 -3 -10 -13 -19 -24 -18
-17 0 -17 1 1 8 19 7 19 8 0 15 -11 4 -20 3 -23 -5 -2 -7 -10 1 -17 17 l-13
29 6 -29z"/>
<path d="M618 93 c7 -3 16 -2 19 1 4 3 -2 6 -13 5 -11 0 -14 -3 -6 -6z"/>
<path d="M10 81 c8 -5 11 -13 7 -17 -11 -12 14 -34 37 -33 13 1 15 3 6 5 -9 3
-20 14 -25 26 -6 12 -17 23 -25 26 -13 3 -13 2 0 -7z"/>
<path d="M483 72 c1 -13 6 -18 15 -14 8 3 18 -1 23 -9 7 -10 9 -7 7 11 -4 32
-48 43 -45 12z"/>
<path d="M0 15 c0 -11 10 -15 38 -14 23 1 28 3 15 6 -13 2 -23 9 -23 14 0 5
-7 9 -15 9 -8 0 -15 -7 -15 -15z"/>
</g>
</svg>
