<?xml version="1.0" standalone="no"?>
<!DOCTYPE svg PUBLIC "-//W3C//DTD SVG 20010904//EN"
 "http://www.w3.org/TR/2001/REC-SVG-20010904/DTD/svg10.dtd">
<svg version="1.0" xmlns="http://www.w3.org/2000/svg"
 width="74.000000pt" height="73.000000pt" viewBox="0 0 74.000000 73.000000"
 preserveAspectRatio="xMidYMid meet">

<g transform="translate(0.000000,73.000000) scale(0.100000,-0.100000)"
fill="#000000" stroke="none">
<path d="M480 684 c0 -73 -73 -258 -106 -271 -8 -3 -52 2 -97 11 -45 9 -126
16 -179 16 -90 0 -98 -2 -98 -19 0 -17 10 -20 67 -25 76 -7 206 -25 241 -33
31 -7 14 -26 -52 -61 -43 -22 -68 -27 -154 -30 -101 -4 -102 -5 -102 -29 l0
-25 113 4 c126 3 171 19 240 83 21 19 42 35 47 35 14 0 21 -18 10 -25 -5 -3
-10 -11 -10 -18 0 -6 7 -1 16 11 19 28 65 52 99 52 68 0 123 -69 111 -139 -4
-25 -2 -31 4 -21 36 56 -17 154 -88 165 -70 11 -97 14 -84 8 10 -4 9 -8 -5
-19 -10 -7 -24 -14 -30 -14 -18 0 -16 29 2 36 8 4 13 9 11 13 -2 3 7 24 20 46
25 41 27 40 24 -7 -1 -25 2 -28 29 -28 l31 0 0 155 0 155 -30 0 c-26 0 -30 -4
-30 -26z m-358 -269 c5 -6 8 -6 8 1 0 13 47 10 163 -8 43 -6 67 -14 64 -21 -5
-14 -28 -14 -127 3 -41 7 -78 17 -82 24 -6 8 -8 7 -8 -1 0 -17 -12 -16 -36 2
-13 11 -14 14 -4 13 8 -2 18 -7 22 -13z"/>
<path d="M490 305 c0 -33 -2 -35 -35 -35 -32 0 -35 -2 -35 -30 0 -28 3 -30 35
-30 32 0 35 -2 35 -30 0 -27 3 -30 30 -30 27 0 30 3 30 30 0 27 3 30 30 30 27
0 30 3 30 30 0 27 -3 30 -30 30 -28 0 -30 3 -30 35 0 32 -2 35 -30 35 -28 0
-30 -3 -30 -35z"/>
<path d="M391 245 c0 -22 6 -50 14 -62 14 -21 13 -22 -35 -38 -70 -23 -213
-45 -297 -45 -71 0 -73 -1 -73 -25 0 -25 1 -25 84 -25 103 0 213 15 315 42 42
11 94 24 116 28 l40 7 -42 2 c-62 2 -105 42 -114 107 l-6 49 -2 -40z m62 -109
c16 -12 9 -16 -60 -35 -43 -11 -105 -23 -138 -26 -33 -4 -72 -8 -87 -10 -17
-2 -28 2 -28 8 0 9 -2 9 -8 1 -4 -6 -15 -11 -24 -11 -13 0 -15 4 -8 12 6 7 41
15 78 19 65 7 220 41 230 51 9 9 26 5 45 -9z"/>
<path d="M585 154 c-18 -16 -22 -22 -9 -15 18 9 53 42 43 41 -2 -1 -17 -12
-34 -26z"/>
</g>
</svg>
