<?xml version="1.0" standalone="no"?>
<!DOCTYPE svg PUBLIC "-//W3C//DTD SVG 20010904//EN"
 "http://www.w3.org/TR/2001/REC-SVG-20010904/DTD/svg10.dtd">
<svg version="1.0" xmlns="http://www.w3.org/2000/svg"
 width="148.000000pt" height="146.000000pt" viewBox="0 0 148.000000 146.000000"
 preserveAspectRatio="xMidYMid meet">
<metadata>
Created by potrace 1.13, written by Peter Selinger 2001-2015
</metadata>
<g transform="translate(0.000000,146.000000) scale(0.100000,-0.100000)"
fill="#000000" stroke="none">
<path d="M967 1412 c-10 -10 -17 -32 -17 -48 0 -16 -7 -61 -15 -99 -9 -39 -18
-85 -22 -103 -3 -18 -10 -35 -14 -38 -5 -3 -9 -14 -9 -25 0 -10 -4 -27 -10
-37 -5 -9 -24 -48 -41 -87 -18 -38 -46 -90 -62 -114 -29 -43 -30 -43 -76 -38
-25 3 -77 13 -116 21 -38 9 -89 16 -112 16 -23 0 -45 5 -48 10 -4 6 -87 10
-216 10 l-209 0 0 -48 0 -49 98 -6 c53 -4 134 -7 179 -7 45 0 85 -4 88 -10 3
-5 28 -10 55 -10 27 0 52 -5 55 -10 3 -6 30 -10 60 -10 30 0 57 -4 60 -10 3
-5 18 -10 32 -10 l27 0 -29 -30 c-16 -17 -41 -37 -55 -44 -22 -11 -45 -23
-132 -67 -10 -5 -29 -9 -42 -9 -14 0 -28 -4 -31 -10 -4 -6 -77 -10 -186 -10
l-179 0 0 -61 0 -61 193 5 c157 4 204 9 256 25 80 26 125 47 141 67 7 8 18 15
24 15 7 0 23 12 37 26 13 14 34 30 47 35 12 5 22 15 22 24 0 8 4 15 8 15 5 0
18 10 31 21 20 19 26 20 47 9 l23 -13 -21 -29 c-15 -21 -17 -33 -10 -40 8 -8
14 -4 21 13 22 57 127 119 202 119 58 0 146 -41 158 -74 6 -13 15 -27 20 -31
6 -3 20 -26 31 -50 21 -46 28 -145 10 -145 -5 0 -10 -8 -10 -18 0 -28 -56 -88
-105 -111 -48 -22 -168 -30 -180 -11 -3 6 -14 10 -24 10 -22 0 -83 65 -105
111 -8 19 -17 63 -18 99 -4 86 -22 83 -26 -4 -3 -71 11 -120 43 -146 13 -11
12 -14 -11 -26 -14 -8 -35 -14 -45 -14 -10 0 -21 -4 -24 -10 -3 -5 -17 -10
-30 -10 -13 0 -27 -4 -30 -10 -3 -5 -18 -10 -33 -10 -15 0 -60 -7 -101 -15
-103 -22 -293 -45 -371 -45 -36 0 -89 -3 -118 -6 l-52 -7 0 -55 0 -55 172 7
c180 7 359 26 488 52 82 17 265 69 292 84 10 6 43 10 73 10 40 0 69 7 105 26
55 29 130 106 130 135 0 10 5 21 10 24 6 3 10 34 10 69 0 46 -6 75 -24 109
-27 54 -104 127 -134 127 -12 0 -24 5 -27 10 -3 6 -34 10 -68 10 -62 0 -128
17 -149 38 -8 8 -5 21 14 49 13 21 31 53 39 71 7 17 17 32 21 32 3 0 6 -27 6
-61 -1 -33 4 -65 9 -70 6 -6 32 -9 59 -7 l49 3 3 295 c1 162 0 305 -3 318 -5
19 -12 22 -49 22 -29 0 -48 -6 -59 -18z"/>
<path d="M973 674 c-9 -4 -13 -28 -13 -69 l0 -64 -62 -3 -63 -3 0 -60 0 -60
62 -3 62 -3 3 -57 3 -57 65 0 65 0 3 57 3 57 57 3 57 3 0 60 0 60 -57 3 -57 3
-3 67 -3 67 -55 2 c-30 1 -61 -1 -67 -3z"/>
</g>
</svg>
