<?xml version="1.0" encoding="utf-8"?>
<!DOCTYPE svg PUBLIC "-//W3C//DTD SVG 1.1//EN" "http://www.w3.org/Graphics/SVG/1.1/DTD/svg11.dtd">
<svg version="1.1" xmlns="http://www.w3.org/2000/svg" xmlns:xlink="http://www.w3.org/1999/xlink" x="0px" y="0px" viewBox="0 0 1000 1000" enable-background="new 0 0 1000 1000" xml:space="preserve">
<g>
  <path style="fill:#ffffff;" id="XMLID_133_" d="M964.4,438.3L584.8,58.6c-34.1-34.1-89.4-34.1-123.5,0c-34.1,34.1-34.1,89.4,0,123.5l230.6,230.6H97.3C49.1,412.7,10,451.8,10,500c0,48.2,39.1,87.3,87.3,87.3h594.6L461.3,817.9c-34.1,34.1-34.1,89.4,0,123.5c17,17.1,39.4,25.6,61.7,25.6c22.3,0,44.7-8.5,61.7-25.6l379.7-379.7C998.5,527.6,998.5,472.4,964.4,438.3z"/>
</g>
</svg>
